<svg xmlns="http://www.w3.org/2000/svg">

<symbol id="icon-logo" viewBox="0 0 24 24">
<path d="M12,17.27L18.18,21L16.54,13.97L22,9.24L14.81,8.62L12,2L9.19,8.62L2,9.24L7.45,13.97L5.82,21L12,17.27Z" />
</symbol>

<symbol id="icon-trash" viewBox="0 0 24 24">
<path d="M9,3V4H4V6H5V19A2,2 0 0,0 7,21H17A2,2 0 0,0 19,19V6H20V4H15V3H9M7,6H17V19H7V6M9,8V17H11V8H9M13,8V17H15V8H13Z" />
</symbol>


<symbol id="icon-x" viewBox="0 0 24 24">
<path d="M12,20C7.59,20 4,16.41 4,12C4,7.59 7.59,4 12,4C16.41,4 20,7.59 20,12C20,16.41 16.41,20 12,20M12,2C6.47,2 2,6.47 2,12C2,17.53 6.47,22 12,22C17.53,22 22,17.53 22,12C22,6.47 17.53,2 12,2M14.59,8L12,10.59L9.41,8L8,9.41L10.59,12L8,14.59L9.41,16L12,13.41L14.59,16L16,14.59L13.41,12L16,9.41L14.59,8Z" />
</symbol>

<symbol id="icon-restore" viewBox="0 0 24 24">
<path d="M13 3C8 3 4 7 4 12H1L4.9 15.9L5 16L9 12H6C6 8.1 9.1 5 13 5S20 8.1 20 12 16.9 19 13 19C11.1 19 9.3 18.2 8.1 16.9L6.7 18.3C8.3 20 10.5 21 13 21C18 21 22 17 22 12S18 3 13 3M12 15H14V17H12V15M12 7H14V13H12V7" />
</symbol>



<symbol id="icon-check" viewBox="0 0 24 24">
<path d="M12 2C6.5 2 2 6.5 2 12S6.5 22 12 22 22 17.5 22 12 17.5 2 12 2M10 17L5 12L6.41 10.59L10 14.17L17.59 6.58L19 8L10 17Z" />
</symbol>



</svg>